<?xml version="1.0" encoding="UTF-8" standalone="no"?>
<!-- Generator: Adobe Illustrator 23.0.6, SVG Export Plug-In . SVG Version: 6.00 Build 0)  -->

<svg
   version="1.1"
   id="Capa_1"
   x="0px"
   y="0px"
   viewBox="0 0 150 150"
   xml:space="preserve"
   sodipodi:docname="bg_deck1_1_vinyl.svg"
   width="150"
   height="150"
   inkscape:version="1.2.2 (732a01da63, 2022-12-09)"
   xmlns:inkscape="http://www.inkscape.org/namespaces/inkscape"
   xmlns:sodipodi="http://sodipodi.sourceforge.net/DTD/sodipodi-0.dtd"
   xmlns="http://www.w3.org/2000/svg"
   xmlns:svg="http://www.w3.org/2000/svg"><defs
   id="defs25" /><sodipodi:namedview
   id="namedview23"
   pagecolor="#505050"
   bordercolor="#eeeeee"
   borderopacity="1"
   inkscape:showpageshadow="0"
   inkscape:pageopacity="0"
   inkscape:pagecheckerboard="0"
   inkscape:deskcolor="#505050"
   showgrid="false"
   inkscape:zoom="2.0344828"
   inkscape:cx="57.999999"
   inkscape:cy="58.737287"
   inkscape:window-width="2560"
   inkscape:window-height="1387"
   inkscape:window-x="-8"
   inkscape:window-y="-8"
   inkscape:window-maximized="1"
   inkscape:current-layer="Capa_1" />
<style
   type="text/css"
   id="style2">
	.st0{fill:#121212;}
	.st1{fill:#1A1A1A;}
	.st2{fill:#020202;}
	.st3{fill:#131313;}
</style>
<rect
   class="st0"
   width="149.91525"
   height="149.91525"
   id="rect4"
   x="0"
   y="0"
   style="stroke-width:1.29238" />
<g
   id="g10"
   transform="matrix(1.6429436,0,0,1.6429436,-20.333102,-20.333102)">
	<circle
   class="st1"
   cx="58"
   cy="58"
   r="44.299999"
   id="circle6" />
	<path
   class="st2"
   d="m 58,14.7 c 23.9,0 43.3,19.4 43.3,43.3 0,23.9 -19.4,43.3 -43.3,43.3 C 34.1,101.3 14.7,81.9 14.7,58 14.7,34.1 34.1,14.7 58,14.7 m 0,-2 C 33,12.7 12.7,33 12.7,58 12.7,83 33,103.3 58,103.3 83,103.3 103.3,83 103.3,58 103.3,33 83,12.7 58,12.7 Z"
   id="path8" />
</g>
<g
   id="g16"
   transform="scale(1.2923729)">
	<circle
   class="st3"
   cx="58"
   cy="58"
   r="18.200001"
   id="circle12" />
	<path
   class="st2"
   d="m 58,40.3 c 9.8,0 17.7,7.9 17.7,17.7 0,9.8 -7.9,17.7 -17.7,17.7 -9.8,0 -17.7,-7.9 -17.7,-17.7 0,-9.8 7.9,-17.7 17.7,-17.7 m 0,-1 C 47.7,39.3 39.3,47.7 39.3,58 39.3,68.3 47.7,76.7 58,76.7 68.3,76.7 76.7,68.3 76.7,58 76.7,47.7 68.3,39.3 58,39.3 Z"
   id="path14" />
</g>
<g
   id="g20"
   transform="scale(1.2923729)">
	<circle
   class="st2"
   cx="58"
   cy="58"
   r="13.5"
   id="circle18" />
</g>
</svg>
