<?xml version="1.0" encoding="UTF-8" standalone="no"?>
<!-- Generator: Adobe Illustrator 23.0.6, SVG Export Plug-In . SVG Version: 6.00 Build 0)  -->

<svg
   version="1.1"
   id="svg6"
   inkscape:version="1.2 (dc2aedaf03, 2022-05-15)"
   x="0px"
   y="0px"
   viewBox="0 0 98 22"
   xml:space="preserve"
   sodipodi:docname="headphones_3.svg"
   width="98"
   height="22"
   xmlns:inkscape="http://www.inkscape.org/namespaces/inkscape"
   xmlns:sodipodi="http://sodipodi.sourceforge.net/DTD/sodipodi-0.dtd"
   xmlns="http://www.w3.org/2000/svg"
   xmlns:svg="http://www.w3.org/2000/svg"><defs
   id="defs577" />
<style
   type="text/css"
   id="style570">
	.st0{fill:#C7C7C7;}
</style>
<sodipodi:namedview
   bordercolor="#666666"
   borderopacity="1"
   gridtolerance="10"
   guidetolerance="10"
   id="namedview8"
   inkscape:current-layer="svg6"
   inkscape:cx="8.010593"
   inkscape:cy="11.794491"
   inkscape:pageopacity="0"
   inkscape:pageshadow="2"
   inkscape:snap-global="false"
   inkscape:window-height="1010"
   inkscape:window-maximized="0"
   inkscape:window-width="827"
   inkscape:window-x="845"
   inkscape:window-y="6"
   inkscape:zoom="12.421053"
   objecttolerance="10"
   pagecolor="#ffffff"
   showgrid="true"
   inkscape:showpageshadow="2"
   inkscape:pagecheckerboard="0"
   inkscape:deskcolor="#d1d1d1">
	<inkscape:grid
   id="grid828"
   type="xygrid"
   originx="0"
   originy="0" />
</sodipodi:namedview>
<path
   class="st0"
   d="m 17.25,19 c -0.9,0 -1.6,-0.7 -1.6,-1.6 v -5 c 0,-0.9 0.7,-1.6 1.6,-1.6 h 0.7 c 0.2,0 0.3,0.1 0.5,0.1 -0.1,-3.3 -2.8,-6.1 -6.1,-6.1 -3.3,0 -6.1,2.7 -6.2,6.1 0.2,-0.1 0.3,-0.1 0.5,-0.1 h 0.7 c 0.9,0 1.6,0.7 1.6,1.6 v 5 c 0,0.9 -0.7,1.6 -1.6,1.6 h -0.7 c -0.9,0 -1.6,-0.7 -1.6,-1.6 V 16 C 4.65,15.9 4.35,15.5 4.35,15.1 V 11 c -0.1,-4.4 3.5,-8 8,-8 4.5,0 8,3.6 8,8 v 4.2 c 0,0.4 -0.3,0.7 -0.7,0.9 v 1.2 c 0,0.9 -0.7,1.6 -1.6,1.6 h -0.7 V 19 Z"
   id="path574" />
</svg>
