<?xml version="1.0" encoding="UTF-8" standalone="no"?>
<!-- Generator: Adobe Illustrator 23.0.6, SVG Export Plug-In . SVG Version: 6.00 Build 0)  -->

<svg
   version="1.1"
   id="svg6"
   inkscape:version="1.2 (dc2aedaf03, 2022-05-15)"
   x="0px"
   y="0px"
   viewBox="0 0 135 22"
   xml:space="preserve"
   sodipodi:docname="internalclock_4.svg"
   width="120"
   height="22"
   xmlns:inkscape="http://www.inkscape.org/namespaces/inkscape"
   xmlns:sodipodi="http://sodipodi.sourceforge.net/DTD/sodipodi-0.dtd"
   xmlns="http://www.w3.org/2000/svg"
   xmlns:svg="http://www.w3.org/2000/svg"><defs
   id="defs532" />
<style
   type="text/css"
   id="style525">
	.st0{fill:#565656;}
</style>
<sodipodi:namedview
   bordercolor="#666666"
   borderopacity="1"
   gridtolerance="10"
   guidetolerance="10"
   id="namedview8"
   inkscape:current-layer="svg6"
   inkscape:cx="8.010593"
   inkscape:cy="11.794491"
   inkscape:pageopacity="0"
   inkscape:pageshadow="2"
   inkscape:snap-global="false"
   inkscape:window-height="1010"
   inkscape:window-maximized="0"
   inkscape:window-width="827"
   inkscape:window-x="845"
   inkscape:window-y="6"
   inkscape:zoom="12.421053"
   objecttolerance="10"
   pagecolor="#ffffff"
   showgrid="true"
   inkscape:showpageshadow="2"
   inkscape:pagecheckerboard="0"
   inkscape:deskcolor="#d1d1d1">
	<inkscape:grid
   id="grid828"
   type="xygrid"
   originx="0"
   originy="0" />
</sodipodi:namedview>
<path
   class="st0"
   d="m 16.75,17.4 h -1 v -0.2 -2.4 -0.3 c 0,-0.8 -0.3,-1.6 -0.8,-2.2 -0.4,-0.5 -1.1,-1 -1.7,-1.2 v -0.2 c 0.7,-0.2 1.3,-0.6 1.7,-1.2 0.5,-0.6 0.8,-1.4 0.8,-2.2 V 4.6 h 1 c 0.1,0 0.3,-0.1 0.3,-0.3 0,-0.2 -0.1,-0.3 -0.3,-0.3 h -1.2 c 0,0 0,0 -0.1,0 h -6.5 v 0 h -1.2 c -0.1,0 -0.3,0.1 -0.3,0.3 0,0.1 0.1,0.3 0.3,0.3 h 1 v 3 c 0,0.8 0.3,1.6 0.8,2.2 0.4,0.5 1.1,1 1.7,1.2 v 0.2 c -0.7,0.2 -1.3,0.6 -1.7,1.2 -0.5,0.6 -0.8,1.4 -0.8,2.2 v 2 0.9 h -1 c -0.1,0 -0.3,0.1 -0.3,0.3 0,0.1 0.1,0.3 0.3,0.3 h 1.2 0.1 6.5 1.2 c 0.1,0 0.3,-0.1 0.3,-0.3 0,-0.2 -0.1,-0.4 -0.3,-0.4 z"
   id="path529" />
</svg>
