<?xml version="1.0" encoding="UTF-8" standalone="no"?>
<!-- Generator: Adobe Illustrator 23.0.6, SVG Export Plug-In . SVG Version: 6.00 Build 0)  -->

<svg
   version="1.1"
   id="svg6"
   inkscape:version="1.2 (dc2aedaf03, 2022-05-15)"
   x="0px"
   y="0px"
   viewBox="0 0 135 22"
   xml:space="preserve"
   sodipodi:docname="samplers_4.svg"
   width="120"
   height="22"
   xmlns:inkscape="http://www.inkscape.org/namespaces/inkscape"
   xmlns:sodipodi="http://sodipodi.sourceforge.net/DTD/sodipodi-0.dtd"
   xmlns="http://www.w3.org/2000/svg"
   xmlns:svg="http://www.w3.org/2000/svg"><defs
   id="defs347" />
<style
   type="text/css"
   id="style332">
	.st0{fill:#565656;}
</style>
<sodipodi:namedview
   bordercolor="#666666"
   borderopacity="1"
   gridtolerance="10"
   guidetolerance="10"
   id="namedview8"
   inkscape:current-layer="svg6"
   inkscape:cx="8.010593"
   inkscape:cy="11.794491"
   inkscape:pageopacity="0"
   inkscape:pageshadow="2"
   inkscape:snap-global="false"
   inkscape:window-height="1010"
   inkscape:window-maximized="0"
   inkscape:window-width="827"
   inkscape:window-x="845"
   inkscape:window-y="6"
   inkscape:zoom="12.421053"
   objecttolerance="10"
   pagecolor="#ffffff"
   showgrid="true"
   inkscape:showpageshadow="2"
   inkscape:pagecheckerboard="0"
   inkscape:deskcolor="#d1d1d1">
	<inkscape:grid
   id="grid828"
   type="xygrid"
   originx="0"
   originy="0" />
</sodipodi:namedview>
<g
   id="g344"
   transform="translate(-10.25)">
	<path
   class="st0"
   d="m 21.2,10.1 h -5.3 c -0.3,0 -0.4,-0.2 -0.4,-0.4 V 4.4 C 15.5,4.1 15.7,4 15.9,4 h 5.3 c 0.3,0 0.4,0.2 0.4,0.4 v 5.3 c 0,0.2 -0.2,0.4 -0.4,0.4 z"
   id="path336" />
	<path
   class="st0"
   d="m 21.2,18 h -5.3 c -0.3,0 -0.4,-0.2 -0.4,-0.4 v -5.3 c 0,-0.3 0.2,-0.4 0.4,-0.4 h 5.3 c 0.3,0 0.4,0.2 0.4,0.4 v 5.3 c 0,0.2 -0.2,0.4 -0.4,0.4 z"
   id="path338" />
	<path
   class="st0"
   d="m 29.1,10.1 h -5.3 c -0.3,0 -0.4,-0.2 -0.4,-0.4 V 4.4 C 23.4,4.1 23.6,4 23.8,4 h 5.3 c 0.3,0 0.4,0.2 0.4,0.4 v 5.3 c 0,0.2 -0.2,0.4 -0.4,0.4 z"
   id="path340" />
	<path
   class="st0"
   d="m 29.1,18 h -5.3 c -0.3,0 -0.4,-0.2 -0.4,-0.4 v -5.3 c 0,-0.3 0.2,-0.4 0.4,-0.4 h 5.3 c 0.3,0 0.4,0.2 0.4,0.4 v 5.3 c 0,0.2 -0.2,0.4 -0.4,0.4 z"
   id="path342" />
</g>
</svg>
