<?xml version="1.0" encoding="UTF-8" standalone="no"?>
<!-- Generator: Adobe Illustrator 23.0.6, SVG Export Plug-In . SVG Version: 6.00 Build 0)  -->

<svg
   version="1.1"
   id="svg6"
   inkscape:version="1.2 (dc2aedaf03, 2022-05-15)"
   x="0px"
   y="0px"
   viewBox="0 0 98 22"
   xml:space="preserve"
   sodipodi:docname="vinylcontrols_3.svg"
   width="98"
   height="22"
   xmlns:inkscape="http://www.inkscape.org/namespaces/inkscape"
   xmlns:sodipodi="http://sodipodi.sourceforge.net/DTD/sodipodi-0.dtd"
   xmlns="http://www.w3.org/2000/svg"
   xmlns:svg="http://www.w3.org/2000/svg"><defs
   id="defs177" />
<style
   type="text/css"
   id="style164">
	.st0{fill:#C7C7C7;}
</style>
<sodipodi:namedview
   bordercolor="#666666"
   borderopacity="1"
   gridtolerance="10"
   guidetolerance="10"
   id="namedview8"
   inkscape:current-layer="svg6"
   inkscape:cx="22.341101"
   inkscape:cy="24.917372"
   inkscape:pageopacity="0"
   inkscape:pageshadow="2"
   inkscape:snap-global="false"
   inkscape:window-height="982"
   inkscape:window-maximized="0"
   inkscape:window-width="2229"
   inkscape:window-x="58"
   inkscape:window-y="52"
   inkscape:zoom="12.421053"
   objecttolerance="10"
   pagecolor="#ffffff"
   showgrid="true"
   inkscape:showpageshadow="2"
   inkscape:pagecheckerboard="0"
   inkscape:deskcolor="#d1d1d1">
	<inkscape:grid
   id="grid828"
   type="xygrid"
   originx="0"
   originy="0" />
</sodipodi:namedview>
<g
   id="g174"
   transform="translate(-10.5)">
	<g
   id="g170">
		<path
   class="st0"
   d="m 22.5,3 c -4.4,0 -8,3.6 -8,8 0,4.4 3.6,8 8,8 4.4,0 8,-3.6 8,-8 0,-4.4 -3.6,-8 -8,-8 z m 0,11.3 c -1.8,0 -3.3,-1.5 -3.3,-3.3 0,-1.8 1.5,-3.3 3.3,-3.3 1.8,0 3.3,1.5 3.3,3.3 0,1.8 -1.5,3.3 -3.3,3.3 z"
   id="path168" />
	</g>
	<path
   class="st0"
   d="m 35.7,5 c 0,-1.1 -0.9,-2 -2,-2 v 0 0 0 c -1.1,0 -2,0.9 -2,2 0,0.7 0.4,1.4 1,1.7 v 7.6 l -2.1,3.1 c -0.3,0.5 -0.2,1.1 0.3,1.4 0.2,0.1 0.4,0.2 0.6,0.2 0.3,0 0.6,-0.2 0.8,-0.4 l 2.2,-3.3 c 0.1,-0.2 0.2,-0.4 0.2,-0.6 V 6.8 c 0.6,-0.4 1,-1.1 1,-1.8 z"
   id="path172" />
</g>
</svg>
