<?xml version="1.0" encoding="UTF-8" standalone="no"?>
<!-- Generator: Adobe Illustrator 23.0.6, SVG Export Plug-In . SVG Version: 6.00 Build 0)  -->

<svg
   version="1.1"
   id="svg6"
   inkscape:version="1.2 (dc2aedaf03, 2022-05-15)"
   x="0px"
   y="0px"
   viewBox="0 0 135 22"
   xml:space="preserve"
   sodipodi:docname="visuals_4.svg"
   width="120"
   height="22"
   xmlns:inkscape="http://www.inkscape.org/namespaces/inkscape"
   xmlns:sodipodi="http://sodipodi.sourceforge.net/DTD/sodipodi-0.dtd"
   xmlns="http://www.w3.org/2000/svg"
   xmlns:svg="http://www.w3.org/2000/svg"><defs
   id="defs116" />
<style
   type="text/css"
   id="style95">
	.st0{fill:#565656;}
</style>
<sodipodi:namedview
   bordercolor="#666666"
   borderopacity="1"
   gridtolerance="10"
   guidetolerance="10"
   id="namedview8"
   inkscape:current-layer="svg6"
   inkscape:cx="64.970337"
   inkscape:cy="11.754237"
   inkscape:pageopacity="0"
   inkscape:pageshadow="2"
   inkscape:snap-global="false"
   inkscape:window-height="1387"
   inkscape:window-maximized="1"
   inkscape:window-width="2560"
   inkscape:window-x="-8"
   inkscape:window-y="-8"
   inkscape:zoom="12.421053"
   objecttolerance="10"
   pagecolor="#ffffff"
   showgrid="true"
   inkscape:showpageshadow="2"
   inkscape:pagecheckerboard="0"
   inkscape:deskcolor="#d1d1d1">
	<inkscape:grid
   id="grid828"
   type="xygrid"
   originx="0"
   originy="0" />
</sodipodi:namedview>
<g
   id="g113"
   transform="translate(-8)">
	<path
   class="st0"
   d="m 26.5,19 c -0.6,0 -1,-0.4 -1,-1 V 4 c 0,-0.6 0.4,-1 1,-1 0.6,0 1,0.4 1,1 v 14 c 0,0.6 -0.4,1 -1,1 z"
   id="path99" />
	<path
   class="st0"
   d="m 30.5,16.5 c -0.6,0 -1,-0.4 -1,-1 v -9 c 0,-0.6 0.4,-1 1,-1 0.6,0 1,0.4 1,1 v 9 c 0,0.6 -0.4,1 -1,1 z"
   id="path101" />
	<path
   class="st0"
   d="m 22.5,16.5 c -0.6,0 -1,-0.4 -1,-1 v -9 c 0,-0.6 0.4,-1 1,-1 0.6,0 1,0.4 1,1 v 9 c 0,0.6 -0.4,1 -1,1 z"
   id="path103" />
	<path
   class="st0"
   d="m 14.5,16.5 c -0.6,0 -1,-0.4 -1,-1 v -9 c 0,-0.6 0.4,-1 1,-1 0.6,0 1,0.4 1,1 v 9 c 0,0.6 -0.4,1 -1,1 z"
   id="path105" />
	<path
   class="st0"
   d="m 34.5,14.5 c -0.6,0 -1,-0.4 -1,-1 v -5 c 0,-0.6 0.4,-1 1,-1 0.6,0 1,0.4 1,1 v 5 c 0,0.6 -0.4,1 -1,1 z"
   id="path107" />
	<path
   class="st0"
   d="m 18.5,14.5 c -0.6,0 -1,-0.4 -1,-1 v -5 c 0,-0.6 0.4,-1 1,-1 0.6,0 1,0.4 1,1 v 5 c 0,0.6 -0.4,1 -1,1 z"
   id="path109" />
	<path
   class="st0"
   d="m 10.5,14.5 c -0.6,0 -1,-0.4 -1,-1 v -5 c 0,-0.6 0.4,-1 1,-1 0.6,0 1,0.4 1,1 v 5 c 0,0.6 -0.4,1 -1,1 z"
   id="path111" />
</g>
</svg>
